<svg t="1695007336770" class="icon" viewBox="0 0 1024 1024" version="1.1" xmlns="http://www.w3.org/2000/svg"
    p-id="20775" width="200" height="200">
    <path
        d="M893.952 144.384h-455.68c-20.48 0-38.912-12.288-47.104-31.232l-15.872-36.864c-8.192-18.944-26.624-31.232-47.104-31.232H129.536C57.856 45.056 0 102.4 0 174.08v35.84c2.56-49.152 68.608-84.992 129.536-84.992h5.12c3.584 0 6.656-0.512 10.24-0.512h198.656c20.48 0 38.912 12.288 47.104 31.232l15.872 36.864c8.192 18.944 26.624 31.232 47.104 31.232h455.68c49.664 0 92.16 27.648 114.176 68.096v-18.944c0-70.656-57.856-128.512-129.536-128.512z"
        fill="#DD6572" p-id="20776"></path>
    <path
        d="M893.952 279.04h-455.68c-20.48 0-38.912-12.288-47.104-31.232l-15.872-36.864c-8.192-18.944-26.624-31.232-47.104-31.232H129.536C57.856 179.712 0 237.056 0 308.736V849.92c0 71.68 57.856 129.536 129.536 129.536h764.928c71.68 0 129.536-57.856 129.024-130.048V408.576c0-71.68-57.856-129.536-129.536-129.536zM482.816 814.592c0 8.704-7.168 15.36-15.36 15.36h-317.44c-8.704 0-15.36-7.168-15.36-15.36v-20.48c0-8.704 7.168-15.36 15.36-15.36h317.44c8.704 0 15.36 7.168 15.36 15.36v20.48z m0-103.936c0 8.704-7.168 15.36-15.36 15.36h-317.44c-8.704 0-15.36-7.168-15.36-15.36v-51.2c0-8.704 7.168-15.36 15.36-15.36h317.44c8.704 0 15.36 7.168 15.36 15.36v51.2z"
        fill="#DD6572" p-id="20777"></path>
</svg>